<?xml version="1.0" encoding="utf-8"?>
<!-- Generator: Adobe Illustrator 28.1.0, SVG Export Plug-In . SVG Version: 6.00 Build 0)  -->
<svg version="1.1" id="Layer_1" xmlns="http://www.w3.org/2000/svg" xmlns:xlink="http://www.w3.org/1999/xlink" x="0px" y="0px"
	 viewBox="0 0 576 360" style="enable-background:new 0 0 576 360;" xml:space="preserve">
<style type="text/css">
	.st0{fill:#4C3B4D;stroke:#4C3B4D;stroke-miterlimit:10;}
</style>
<g>
	<path class="st0" d="M168.1,105.54c1.18,0.43,1.77,1.15,1.77,2.17c0,1.51-3.02,2.76-9.07,3.74c-15.5,4.34-31.66,9.39-48.48,15.17
		v0.2c3.74,6.37,7.62,17.01,11.63,31.92c3.15,13.96,4.73,22.43,4.73,25.42c29.66-17.74,46.02-26.6,49.07-26.6
		c0.49,0,1.08,0.46,1.77,1.38v0.99c0,1.12-2.1,2.5-6.31,4.14c-10.15,5.16-24.86,13.56-44.14,25.22c0.13,2.17,0.2,3.81,0.2,4.93v2.96
		c0,23.32-7.23,43.03-21.68,59.12l-5.52,4.73c-6.7,4.6-13.01,6.9-18.92,6.9H80.6c-8.77,0-14.94-3.81-18.52-11.43
		c-0.66-2.43-0.99-4.66-0.99-6.7c0-10.64,7.62-22.53,22.86-35.67c11.96-9.26,25.42-18.33,40.4-27.2c0-3.78-1.64-13.04-4.93-27.79
		c-3.94-13.76-7.62-24.14-11.04-31.14c-20.86,6.93-36.16,12.78-45.92,17.54c-5.32,3.15-8.34,4.73-9.07,4.73
		c-1.18-0.43-1.77-1.15-1.77-2.17c0-1.25,4.01-3.94,12.02-8.08c9.95-4.83,31.76-12.78,65.43-23.85
		C151.44,109.08,164.45,105.54,168.1,105.54z M65.62,250.18c0,5.71,2.82,9.72,8.47,12.02c2.5,0.79,4.86,1.18,7.09,1.18h1.38
		c10.61,0,20.46-6.77,29.56-20.3c8.41-13.83,12.61-29.13,12.61-45.92v-4.93h-0.39c-14.48,8.64-27.36,17.44-38.63,26.41
		C72.32,230.41,65.62,240.92,65.62,250.18z"/>
	<path class="st0" d="M201.6,143.87h0.39c1.51,0,2.27,0.87,2.27,2.61c0,1.25-2.36,8.31-7.09,21.18c-1.9,6.63-2.86,11.63-2.86,14.98
		v0.59c0,0.66,0.21,1.31,0.64,1.97c3.15,0,10.76-6.32,22.81-18.97c2.76-3.35,5.93-7.6,9.51-12.76c0.49-0.39,0.97-0.59,1.43-0.59
		h0.79c0.95,0.46,1.43,1.12,1.43,1.97c-2.04,6.04-8.9,14.5-20.59,25.37c-6.87,6.37-12.06,9.56-15.57,9.56
		c-2.92,0-4.61-2.12-5.07-6.36V182c0-4.66,1.63-11.71,4.88-21.14c-0.33,0.16-2.82,3.96-7.49,11.38
		c-8.05,12.38-14.12,18.57-18.23,18.57h-0.2c-2.53,0-4.01-1.94-4.43-5.81v-0.79c0-9.52,6.88-20.71,20.64-33.55
		c5.62-4.11,9.92-6.16,12.91-6.16h1.82L201.6,143.87z M168.83,184.61l0.2,1.38c1.9-0.36,5.07-3.61,9.51-9.75
		c3.38-4.8,9.31-13.78,17.79-26.95h-0.2c-3.38,0.62-8.7,4.88-15.96,12.76C172.61,170.72,168.83,178.24,168.83,184.61z"/>
	<path class="st0" d="M272.25,145.69c2.76,0.39,4.14,1.77,4.14,4.14c0,3.68-6.96,14.39-20.89,32.12
		c-7.13,9.26-11.4,15.63-12.81,19.12c2.07,0,11.59-4.4,28.57-13.2c9.46-4.76,21.74-9.69,36.85-14.78c6.6-2.1,11.4-3.15,14.39-3.15
		h0.59c2.63,0,3.94,0.85,3.94,2.56c-0.33,1.31-1.05,1.97-2.17,1.97h-1.77c-7.06,0-23.22,5.58-48.48,16.75
		c-18.26,9.59-28.71,14.39-31.33,14.39h-0.99c-2.89-0.23-4.34-1.41-4.34-3.55v-0.59c0-2.99,4.93-10.74,14.78-23.25
		c11.53-15.08,17.83-24.34,18.92-27.79h-0.39c-6.04,1.28-14.32,3.78-24.83,7.49c-3.78,1.05-7,1.58-9.66,1.58
		c-6.83-0.76-10.25-2.27-10.25-4.53c0.3-1.31,1.15-1.97,2.56-1.97h0.2c0.39,0,1.31,0.46,2.76,1.38c1.28,0.39,2.73,0.66,4.34,0.79
		c3.38,0,12.84-2.69,28.38-8.08C268.44,146.15,270.93,145.69,272.25,145.69z"/>
	<path class="st0" d="M340.49,143.72c2.76,0.39,4.14,1.77,4.14,4.14c0,3.68-6.96,14.39-20.89,32.12
		c-7.13,9.26-11.4,15.63-12.81,19.12c2.07,0,11.59-4.4,28.57-13.2c9.46-4.76,21.74-9.69,36.85-14.78c6.6-2.1,11.4-3.15,14.39-3.15
		h0.59c2.63,0,3.94,0.85,3.94,2.56c-0.33,1.31-1.05,1.97-2.17,1.97h-1.77c-7.06,0-23.22,5.58-48.48,16.75
		c-18.26,9.59-28.71,14.39-31.33,14.39h-0.99c-2.89-0.23-4.34-1.41-4.34-3.55v-0.59c0-2.99,4.93-10.74,14.78-23.25
		c11.53-15.08,17.83-24.34,18.92-27.79h-0.39c-6.04,1.28-14.32,3.78-24.83,7.49c-3.78,1.05-7,1.58-9.66,1.58
		c-6.83-0.76-10.25-2.27-10.25-4.53c0.3-1.31,1.15-1.97,2.56-1.97h0.2c0.39,0,1.31,0.46,2.76,1.38c1.28,0.39,2.73,0.66,4.34,0.79
		c3.38,0,12.84-2.69,28.38-8.08C336.68,144.18,339.17,143.72,340.49,143.72z"/>
	<path class="st0" d="M426.95,133.77c1.81,0,3.09,0.79,3.84,2.36c0.26,1.12,0.39,1.77,0.39,1.97c0,4.6-5.01,12.71-15.03,24.34
		c-8.67,8.64-16.13,12.96-22.37,12.96c-0.69,2.36-1.03,4.34-1.03,5.91v0.79c0,4.04,1.81,6.06,5.42,6.06h1.18
		c6.47,0,19.41-7.13,38.82-21.38c4.53-3.19,9.46-7.7,14.78-13.55c0.69-0.13,1.08-0.2,1.18-0.2c0.53,0,1.13,0.46,1.82,1.38v0.99
		c-0.56,2.99-6.49,8.67-17.79,17.05c-18.66,13.63-31.86,20.45-39.61,20.45c-4.43,0-7.57-1.97-9.41-5.91
		c-0.66-1.31-0.99-2.74-0.99-4.29v-1.97c0-7.82,5.34-18.03,16.01-30.64C414.83,139.21,422.42,133.77,426.95,133.77z M395.57,171.12
		h0.2c3.15-0.43,8.29-3.84,15.42-10.25c8.41-9.1,13.4-16.16,14.98-21.18l0.2-1.18h-0.2c-3.65,0.89-10.12,6.06-19.41,15.52
		C400.87,161.21,397.14,166.91,395.57,171.12z"/>
	<path class="st0" d="M520.06,47.31l0.59,0.05c2.13,0.16,3.2,2.36,3.2,6.6l-0.05,0.2c-0.92,10.64-12.55,37.25-34.88,79.81
		c-3.74,14.45-6.09,27.05-7.05,37.79c-0.69,9.72,0.23,15.8,2.76,18.23l1.18,0.3c4.5,0.39,11.68-4.91,21.53-15.91
		c2.63-3.25,6.32-8.47,11.09-15.67c0.76-0.33,1.36-0.46,1.82-0.39c1.15,0.49,1.68,1.2,1.58,2.12c-1.12,3.19-4.61,8.61-10.49,16.26
		c-10.87,12.65-19.51,18.69-25.91,18.13l-0.2-0.05c-5.42-0.46-8.15-6.36-8.18-17.69c0.03-1.74,0.13-3.58,0.3-5.52l0.05-0.39
		c0.53-5.91,1.53-12.81,3.01-20.69v-0.2l-0.2-0.05c-14.85,28.51-25.57,42.48-32.17,41.93c-3.48-0.33-5.52-3.35-6.11-9.07
		c0-1.45,0.05-2.69,0.15-3.74c0.89-10.21,6.73-22.04,17.54-35.47c7.03-7.55,13.4-11.08,19.12-10.59c1.74,0.3,3.28,0.77,4.63,1.43
		c0.85-0.99,2.61-6.77,5.27-17.34c11.04-36.46,19.71-58.73,26.01-66.81C516.68,48.26,518.49,47.18,520.06,47.31z M446.56,179.74
		c-0.03,4.99,0.48,7.54,1.53,7.64l0.39,0.05c4.73,0.23,15.72-16.09,32.96-48.97c-0.82-0.46-1.86-0.74-3.1-0.84
		c-5.42-0.49-12.14,4.71-20.15,15.62C451.09,163.51,447.22,172.35,446.56,179.74z M495.53,110.62v0.2l0.2,0.05
		c14.85-29.63,22.61-48.28,23.3-55.97l0.2-2.32c-4.47,3.88-11,18.93-19.61,45.18C497.48,104.39,496.12,108.68,495.53,110.62z"/>
</g>
</svg>
